<svg width="1280" height="811" viewBox="0 0 1280 811" fill="none" xmlns="http://www.w3.org/2000/svg">
<path d="M162.919 758.79C141.084 718.618 130.185 677.625 133.005 631.245C136.346 576.295 165.075 525.629 195.073 480.867C202.507 469.773 231.912 443.267 220.178 449.645" stroke="#1D1D1D" stroke-width="64.354" stroke-linecap="round"/>
<path d="M322.722 593.587C279.216 607.653 236.918 610.816 191.85 599.505C138.455 586.103 93.945 548.536 55.4715 510.81C45.9362 501.46 25.2977 467.678 29.4059 480.385" stroke="#1D1D1D" stroke-width="64.354" stroke-linecap="round"/>
<path d="M1181.16 754.977C1175.47 728.994 1176.03 704.324 1185.12 678.868C1195.89 648.708 1220.15 625.056 1244.17 604.908C1250.12 599.915 1270.84 589.871 1263.25 591.533" stroke="#1D1D1D" stroke-width="37.4375" stroke-linecap="round"/>
<path d="M1297.22 688.575C1270.63 689.383 1246.49 684.295 1223.14 670.672C1195.48 654.531 1176.7 626.329 1161.32 599.015C1157.51 592.246 1151.45 570.027 1151.69 577.792" stroke="#1D1D1D" stroke-width="37.4375" stroke-linecap="round"/>
<path d="M1324.82 277.18C1268.47 289.519 1214.97 288.317 1159.76 268.599C1094.35 245.237 1043.05 192.618 999.357 140.538C988.527 127.63 966.744 82.6844 970.348 99.1434" stroke="#1D1D1D" stroke-width="81.1929" stroke-linecap="round"/>
<path d="M1180.81 25.4771C1182.56 83.1372 1171.53 135.503 1141.98 186.137C1106.98 246.127 1045.81 286.856 986.576 320.216C971.895 328.484 923.707 341.618 940.548 341.107" stroke="#1D1D1D" stroke-width="81.1929" stroke-linecap="round"/>
<path d="M61.6957 196.674C49.7312 189.008 40.6216 179.48 34.4399 166.429C27.116 150.967 27.3465 132.867 28.807 116.185C29.1689 112.051 33.2034 100.428 30.9643 103.922" stroke="#1D1D1D" stroke-width="20" stroke-linecap="round"/>
<path d="M80.4521 127.749C70.7142 138.098 59.6713 145.297 45.7056 148.97C29.1594 153.322 11.4115 149.763 -4.71667 145.256C-8.71388 144.139 -19.3951 138.033 -16.3725 140.877" stroke="#1D1D1D" stroke-width="20" stroke-linecap="round"/>
</svg>
