<?xml version="1.0" standalone="no"?>
<!DOCTYPE svg PUBLIC "-//W3C//DTD SVG 20010904//EN"
 "http://www.w3.org/TR/2001/REC-SVG-20010904/DTD/svg10.dtd">
<svg version="1.0" xmlns="http://www.w3.org/2000/svg"
 width="202.000000pt" height="202.000000pt" viewBox="0 0 202.000000 202.000000"
 preserveAspectRatio="xMidYMid meet">
<metadata>
Created by potrace 1.14, written by Peter Selinger 2001-2017
</metadata>
<g transform="translate(0.000000,202.000000) scale(0.100000,-0.100000)"
fill="#000000" stroke="none">
<path d="M850 1729 c-58 -24 -96 -80 -105 -151 -3 -24 -10 -60 -16 -79 -11
-40 -22 -176 -23 -301 -1 -49 -3 -88 -6 -88 -39 1 -240 58 -313 89 -129 55
-182 54 -243 -5 -94 -92 -47 -232 93 -281 32 -11 90 -32 128 -46 69 -25 287
-74 354 -79 30 -2 36 -8 50 -43 26 -68 99 -204 142 -263 55 -75 202 -219 275
-267 76 -51 117 -64 162 -54 100 22 155 125 116 218 -16 38 -22 43 -126 120
-82 60 -154 140 -211 233 -33 55 -36 63 -20 66 49 9 206 69 273 104 131 68
299 210 337 283 37 71 2 168 -73 205 -76 38 -128 22 -219 -64 -104 -100 -214
-166 -338 -203 -26 -7 -52 -11 -58 -7 -18 11 -3 261 22 357 32 125 18 187 -53
240 -31 23 -111 32 -148 16z"/>
</g>
</svg>
