<?xml version="1.0" standalone="no"?>
<!DOCTYPE svg PUBLIC "-//W3C//DTD SVG 20010904//EN"
 "http://www.w3.org/TR/2001/REC-SVG-20010904/DTD/svg10.dtd">
<svg version="1.0" xmlns="http://www.w3.org/2000/svg"
 width="144.000000pt" height="144.000000pt" viewBox="0 0 144.000000 144.000000"
 preserveAspectRatio="xMidYMid meet">
<metadata>
Created by potrace 1.14, written by Peter Selinger 2001-2017
</metadata>
<g transform="translate(0.000000,144.000000) scale(0.100000,-0.100000)"
fill="#000000" stroke="none">
<path d="M305 1426 c-54 -17 -81 -32 -141 -77 -62 -48 -104 -105 -133 -184
-32 -85 -32 -227 -1 -286 6 -10 8 -19 5 -19 -7 0 50 -91 73 -116 20 -21 20
-21 -18 -68 -20 -26 -47 -76 -59 -111 -100 -283 108 -572 404 -560 44 2 92 6
107 9 35 8 113 51 153 84 l29 24 18 -22 c10 -12 18 -19 18 -15 0 5 8 1 18 -8
10 -9 44 -28 77 -44 53 -24 72 -27 161 -28 56 0 112 5 125 11 110 49 165 89
221 161 102 131 98 359 -8 496 l-35 45 39 59 c56 83 74 137 78 225 3 73 -15
167 -36 193 -5 6 -8 13 -7 16 4 14 -65 100 -107 133 -23 20 -69 48 -102 63
-53 25 -70 27 -169 27 -96 0 -117 -3 -165 -25 -30 -14 -69 -38 -86 -52 -38
-33 -48 -33 -77 -6 -12 12 -51 35 -87 52 -55 25 -79 30 -160 33 -57 1 -111 -2
-135 -10z m176 -306 c85 -39 72 -176 -20 -208 -77 -27 -157 39 -147 121 5 44
28 74 71 93 32 14 56 13 96 -6z m597 -2 c46 -24 65 -98 41 -151 -11 -25 -74
-65 -96 -61 -7 1 -22 2 -33 3 -19 1 -79 52 -81 68 0 4 -3 20 -5 35 -10 61 58
130 120 122 17 -2 42 -9 54 -16z m-616 -587 c3 0 20 -13 37 -27 60 -50 50
-145 -19 -182 -116 -62 -226 84 -134 179 15 15 30 26 34 24 3 -2 12 0 19 4 11
7 34 8 63 2z m598 -7 c112 -45 82 -216 -38 -217 -42 0 -54 5 -81 31 -67 64
-37 171 54 195 11 2 21 5 22 6 2 0 21 -6 43 -15z"/>
</g>
</svg>
